<svg xmlns="http://www.w3.org/2000/svg" xmlns:xlink="http://www.w3.org/1999/xlink" version="1.1" id="Your_Icon" x="0px" y="0px" width="100px" height="100px" viewBox="5.0 -10.0 100.0 135.0" enable-background="new 0 0 100 100" xml:space="preserve">
<style type="text/css">
  svg{fill:#FFFFFF;}
</style>
<path d="M92.463,1h-2.411H75.591H24.215H9.754H7.343C3.352,1,0,3.818,0,7.811v43.382C0,55.185,3.352,58,7.343,58H11V39.29  C11,32.92,14.7,29,20.21,29h0.86c-1.53-2-2.471-3.88-2.471-6.24c0-4.78,3.891-8.85,8.67-8.85c4.78,0,8.671,4.07,8.671,8.85  c0,2.36-0.95,4.24-2.48,6.24h1.23c2.079,0,3.84,0.11,5.449,1.36l5.681-10.6l0.09-0.17l0.12-0.15c1.04-1.25,2.41-1.94,3.85-1.94  c1.76,0,3.37,1.03,4.12,2.62c0.77,1.62,0.51,3.48-0.68,5.04l-6.84,13.19l-0.091,0.19l-0.14,0.18C44.02,41.43,40.99,43,37.93,43  c-0.1,0-0.21,0-0.31,0l-0.006,15h54.849c3.992,0,7.537-2.815,7.537-6.808V7.811C100,3.818,96.455,1,92.463,1z"/>
<path d="M33.94,22.58c0,3.69-2.99,6.67-6.671,6.67c-3.689,0-6.67-2.98-6.67-6.67c0-3.68,2.98-6.67,6.67-6.67  C30.95,15.91,33.94,18.9,33.94,22.58z"/>
<path d="M49.88,19.5c1.99,0,3.58,2.36,1.75,4.57l-6.92,13.36c-1.85,2.25-4.31,3.53-6.78,3.53c-0.779,0-1.55-0.12-2.31-0.39  L35.6,93.98c0,2.06-1.67,3.789-3.739,3.789c-2.061,0-3.74-1.56-3.74-3.619L28.13,63h-1.66l-0.01,31.17c0,2.061-1.67,3.53-3.74,3.53  c-2.06,0-3.729-1.63-3.729-3.7V40H18v20c0,1.5-1.25,2.25-2.5,2.25S13,61.5,13,60V39.29c0-4.8,2.49-8.65,7.21-8.65h14.48  c2.38,0,3.699,0.42,4.989,1.84l1.48,0.01l6.42-11.78C48.29,19.85,49.11,19.5,49.88,19.5z"/>
</svg>